<svg xmlns="http://www.w3.org/2000/svg" xmlns:xlink="http://www.w3.org/1999/xlink" width="48" height="48" viewBox="0 0 48 48">
  <defs>
    <clipPath id="clip-path">
      <path id="Path_3200" data-name="Path 3200" d="M39.679,38.277c0,1-5.969,1.805-13.332,1.805a67.534,67.534,0,0,1-10.491-.689,5.361,5.361,0,0,1-2.841-1.117c-3.252-3.125.223-22.1,12.776-18.47C33.3,21.976,44.351,32.317,39.679,38.277Z" transform="translate(-11.867 -19.348)" fill="none"/>
    </clipPath>
    <clipPath id="clip-diet_food">
      <rect width="48" height="48"/>
    </clipPath>
  </defs>
  <g id="diet_food" clip-path="url(#clip-diet_food)">
    <g id="Flat_Keto_diet" data-name="Flat_Keto diet" transform="translate(0 -2)">
      <path id="Path_3152" data-name="Path 3152" d="M42.664,87,40.72,90.333H17.944L16,87Z" transform="translate(-4.334 -55.614)" fill="#00c9ce"/>
      <g id="Group_2356" data-name="Group 2356" transform="translate(11.666 31.386)" opacity="0.2">
        <path id="Path_3153" data-name="Path 3153" d="M19.755,90.333H17.944L16,87h1.719A7.839,7.839,0,0,1,19.755,90.333Z" transform="translate(-16 -87)" fill="#231f20"/>
      </g>
      <path id="Path_3154" data-name="Path 3154" d="M42.664,82.805c0,1-5.969,1.805-13.332,1.805a67.534,67.534,0,0,1-10.491-.689C17.061,83.614,16,83.228,16,82.805s1.1-.822,2.95-1.133A68.33,68.33,0,0,1,29.332,81C36.7,81,42.664,81.808,42.664,82.805Z" transform="translate(-4.334 -51.28)" fill="#038c93"/>
      <g id="Group_2357" data-name="Group 2357" transform="translate(11.666 30.392)" opacity="0.2">
        <path id="Path_3155" data-name="Path 3155" d="M18.841,85.67C17.061,85.361,16,84.975,16,84.553s1.1-.822,2.95-1.133A4.089,4.089,0,0,0,18.841,85.67Z" transform="translate(-16 -83.42)" fill="#231f20"/>
      </g>
      <path id="Path_3172" data-name="Path 3172" d="M45.775,99v1.111a.279.279,0,0,1-.278.278H23.278a.279.279,0,0,1-.278-.278V99Z" transform="translate(-9.389 -64.281)" fill="#038c93"/>
      <g id="Group_2363" data-name="Group 2363" transform="translate(13.611 34.719)" opacity="0.2">
        <path id="Path_3173" data-name="Path 3173" d="M25.039,100.389H23.278a.279.279,0,0,1-.278-.278V99h1.811A6.022,6.022,0,0,1,25.039,100.389Z" transform="translate(-23 -99)" fill="#231f20"/>
      </g>
      <g id="Group_2380" data-name="Group 2380" transform="translate(10.519 12.596)" clip-path="url(#clip-path)">
        <g id="Group_2379" data-name="Group 2379" transform="translate(3.406 0.837)">
          <g id="Group_2366" data-name="Group 2366" transform="translate(11.907 6.403)">
            <path id="Path_3174" data-name="Path 3174" d="M70.212,46.165c-3.186,3.412-4.827,9.743-.958,12.483a4.4,4.4,0,0,0,5.214,0c3.869-2.74,2.228-9.07-.958-12.483a2.183,2.183,0,0,0-3.3,0Z" transform="translate(-67 -45.412)" fill="#ecffff"/>
            <g id="Group_2364" data-name="Group 2364" transform="translate(0 3.063)" opacity="0.2">
              <path id="Path_3175" data-name="Path 3175" d="M76.345,64.136a5.112,5.112,0,0,1-1.878,2.478,4.409,4.409,0,0,1-5.216,0c-3.105-2.2-2.661-6.713-.714-10.174-1.444,3.264-1.514,7.091,1.269,9.063a4.409,4.409,0,0,0,5.216,0A4.971,4.971,0,0,0,76.345,64.136Z" transform="translate(-66.999 -56.44)" fill="#231f20"/>
            </g>
            <circle id="Ellipse_152" data-name="Ellipse 152" cx="3.5" cy="3.5" r="3.5" transform="translate(1.168 4.273)" fill="#fce724"/>
            <g id="Group_2365" data-name="Group 2365" transform="translate(1.667 5.646)" opacity="0.2">
              <path id="Path_3176" data-name="Path 3176" d="M79.027,69.773a3.171,3.171,0,0,1-2.833,1.872A3.343,3.343,0,0,1,73,68.173a3.618,3.618,0,0,1,.917-2.433,3.676,3.676,0,0,0-.361,1.6,3.343,3.343,0,0,0,3.194,3.472A3.059,3.059,0,0,0,79.027,69.773Z" transform="translate(-73 -65.74)" fill="#231f20"/>
            </g>
          </g>
          <g id="Group_2373" data-name="Group 2373">
            <path id="Path_3177" data-name="Path 3177" d="M44.9,50.287a1.79,1.79,0,0,1-2.714-.553c-1.4-2.666-2.53-4.266-4.061-5.027a5.157,5.157,0,0,0-1.889-.514L35.13,41.971A14.236,14.236,0,0,1,39.7,43.94a6.356,6.356,0,0,1,.705.53,4.65,4.65,0,0,1-.369-.733,7.609,7.609,0,0,1-.464-2.6l.833-.278,1.175,1.764.492.736-.064-1.1L41.8,38.638l1.944-.278a11.57,11.57,0,0,0-.506,2.73,10.713,10.713,0,0,0,2.028,6.827,1.773,1.773,0,0,1-.358,2.369Z" transform="translate(-32.075 -33.916)" fill="#76b600"/>
            <g id="Group_2370" data-name="Group 2370" transform="translate(3.055 4.444)" opacity="0.5">
              <g id="Group_2367" data-name="Group 2367" transform="translate(0 3.611)" opacity="0.2">
                <path id="Path_3178" data-name="Path 3178" d="M35.13,51.36A14.236,14.236,0,0,1,39.7,53.329a11.123,11.123,0,0,1-1.572.767,5.157,5.157,0,0,0-1.889-.514Z" transform="translate(-35.13 -51.36)" fill="#231f20"/>
              </g>
              <g id="Group_2368" data-name="Group 2368" transform="translate(4.444 2.5)" opacity="0.2">
                <path id="Path_3179" data-name="Path 3179" d="M51.963,47.36l1.175,1.764a15.748,15.748,0,0,1-1.544,1.114,7.609,7.609,0,0,1-.464-2.6Z" transform="translate(-51.13 -47.36)" fill="#231f20"/>
              </g>
              <g id="Group_2369" data-name="Group 2369" transform="translate(6.666)" opacity="0.2">
                <path id="Path_3180" data-name="Path 3180" d="M61.074,38.36a11.57,11.57,0,0,0-.506,2.73c-.336.353-.75.755-1.225,1.172l-.214-3.625Z" transform="translate(-59.13 -38.36)" fill="#231f20"/>
              </g>
            </g>
            <path id="Path_3181" data-name="Path 3181" d="M34.962,24.026a1.968,1.968,0,0,0-.314.028A2.084,2.084,0,0,0,32.6,22.36a2.056,2.056,0,0,0-1.414.558,2.121,2.121,0,0,0-.478.658,2.22,2.22,0,0,0-3.68,2.283,2.092,2.092,0,0,0-.817-.167A1.745,1.745,0,0,0,26,25.7a2.082,2.082,0,0,0-.514,4.025,2.082,2.082,0,1,0,3.639,1.38,2.114,2.114,0,0,0-.053-.461,3.19,3.19,0,0,0,5.052-2.594,3.362,3.362,0,0,0-.017-.336,1.944,1.944,0,1,0,.85-3.691Z" transform="translate(-24.13 -22.36)" fill="#05db05"/>
            <g id="Group_2371" data-name="Group 2371" transform="translate(0 3.344)" opacity="0.2">
              <path id="Path_3182" data-name="Path 3182" d="M27.694,41.785a2.08,2.08,0,0,1-2.2-3.361A2.082,2.082,0,0,1,26,34.4C25.694,36.4,25.533,39.908,27.694,41.785Z" transform="translate(-24.13 -34.4)" fill="#231f20"/>
            </g>
            <g id="Group_2372" data-name="Group 2372" transform="translate(2.307 1.91)">
              <path id="Path_3183" data-name="Path 3183" d="M40.652,31.733a.417.417,0,0,0,0-.833.417.417,0,0,0,0,.833Z" transform="translate(-38.079 -30.438)" fill="#276002"/>
              <path id="Path_3184" data-name="Path 3184" d="M54.12,30.07a.417.417,0,0,0,0-.833.417.417,0,0,0,0,.833Z" transform="translate(-47.806 -29.237)" fill="#276002"/>
              <path id="Path_3185" data-name="Path 3185" d="M61.934,34.227a.417.417,0,0,0,0-.833.417.417,0,0,0,0,.833Z" transform="translate(-53.45 -32.239)" fill="#276002"/>
              <path id="Path_3186" data-name="Path 3186" d="M44.968,45.866a.417.417,0,0,0,0-.833.417.417,0,0,0,0,.833Z" transform="translate(-41.196 -40.646)" fill="#276002"/>
              <path id="Path_3187" data-name="Path 3187" d="M35,51.852a.417.417,0,0,0,0-.833.417.417,0,0,0,0,.833Z" transform="translate(-33.996 -44.969)" fill="#276002"/>
              <path id="Path_3188" data-name="Path 3188" d="M32.837,42.208a.417.417,0,0,0,0-.833.417.417,0,0,0,0,.833Z" transform="translate(-32.434 -38.004)" fill="#276002"/>
              <path id="Path_3189" data-name="Path 3189" d="M41.151,40.215a.417.417,0,0,0,0-.833.417.417,0,0,0,0,.833Z" transform="translate(-38.439 -36.564)" fill="#276002"/>
              <path id="Path_3190" data-name="Path 3190" d="M49.463,35.892a.417.417,0,0,0,0-.833.417.417,0,0,0,0,.833Z" transform="translate(-44.442 -33.442)" fill="#276002"/>
              <path id="Path_3191" data-name="Path 3191" d="M54.009,42.79a.417.417,0,0,0,0-.833.417.417,0,0,0,0,.833Z" transform="translate(-47.726 -38.424)" fill="#276002"/>
            </g>
          </g>
          <g id="Group_2378" data-name="Group 2378" transform="translate(1.111 9.038)">
            <path id="Path_3192" data-name="Path 3192" d="M40.357,56.255l-.107-.114c-.065-.066-.132-.129-.2-.191L28.87,66.1a2.367,2.367,0,0,0,.177.22,1.252,1.252,0,0,0,.09.105c2.115,2.333,6.342,1.943,9.44-.867s3.895-6.978,1.781-9.309Z" transform="translate(-28.664 -55.658)" fill="#635b0e"/>
            <g id="Group_2374" data-name="Group 2374" transform="translate(0.206 7.657)" opacity="0.2">
              <path id="Path_3193" data-name="Path 3193" d="M40.422,82.47a9.748,9.748,0,0,1-1.847,2.247c-3.1,2.811-7.324,3.2-9.438.867a1.052,1.052,0,0,1-.089-.106,2.193,2.193,0,0,1-.178-.219l.708-.644.025.031a1.051,1.051,0,0,0,.089.106c2.114,2.333,6.341,1.944,9.438-.867A10.249,10.249,0,0,0,40.422,82.47Z" transform="translate(-28.87 -82.47)" fill="#231f20"/>
            </g>
            <path id="Path_3194" data-name="Path 3194" d="M36.032,62.592c-3.1,2.811-6.485,4.122-7.569,2.927l-.042-.05a0,0,0,0,1,0,0c-.022-.028-.042-.056-.061-.083a.07.07,0,0,1-.011-.019c-.019-.031-.036-.061-.053-.092a.941.941,0,0,1-.05-.108.978.978,0,0,1-.042-.117c-.011-.039-.022-.081-.031-.122s-.017-.075-.022-.111a1.952,1.952,0,0,1-.019-.292c0-.047,0-.1.006-.147a.863.863,0,0,1,.008-.119c.006-.036.008-.075.014-.111.008-.053.017-.106.028-.161v-.008a.008.008,0,0,1,0-.006,1.223,1.223,0,0,1,.028-.131.692.692,0,0,1,.025-.1,4.667,4.667,0,0,1,.2-.608s0,0,0-.006c.069-.178.15-.361.244-.55.033-.069.067-.136.1-.206s.078-.147.122-.222c.056-.1.117-.206.181-.311.044-.075.092-.153.142-.228s.114-.178.172-.267c.047-.067.092-.133.142-.2s.111-.158.169-.236c.081-.111.164-.219.25-.331.044-.058.089-.117.136-.175s.114-.144.175-.214a.314.314,0,0,1,.028-.036l.058-.069c.083-.1.169-.2.258-.3.039-.044.075-.086.117-.131.072-.083.15-.167.228-.25l.067-.072c.072-.075.144-.153.219-.228q.146-.15.3-.3c.075-.075.15-.147.228-.219.108-.1.219-.206.331-.308.186-.169.375-.331.561-.492.008-.006.014-.014.022-.019,2.341-1.961,4.755-3.047,6.149-2.83h.006a1.826,1.826,0,0,1,.294.072.961.961,0,0,1,.156.064c.042.019.083.042.122.064a.254.254,0,0,0,.036.022,1.267,1.267,0,0,1,.225.192c.022.025.042.05.061.075C40.7,56.668,39.068,59.84,36.032,62.592Z" transform="translate(-28.13 -54.902)" fill="#bdc431"/>
            <path id="Path_3195" data-name="Path 3195" d="M39.565,56.546a6.4,6.4,0,0,1-.422.917,16.7,16.7,0,0,1-3.919,4.48A20.385,20.385,0,0,1,31.7,64.336a9.394,9.394,0,0,1-3.277,1.133,0,0,0,0,1,0,0c-.022-.028-.042-.056-.061-.083a.07.07,0,0,1-.011-.019c-.019-.031-.036-.061-.053-.092a.941.941,0,0,1-.05-.108.978.978,0,0,1-.042-.117c-.011-.039-.022-.081-.031-.122s-.017-.075-.022-.111a1.953,1.953,0,0,1-.019-.292c0-.047,0-.1.006-.147a.863.863,0,0,1,.008-.119c.006-.036.008-.075.014-.111.008-.053.017-.106.028-.161v-.008a.008.008,0,0,1,0-.006,1.223,1.223,0,0,1,.028-.131.691.691,0,0,1,.025-.1,4.667,4.667,0,0,1,.2-.608s0,0,0-.006c.069-.178.15-.361.244-.55.033-.069.067-.136.1-.206s.078-.147.122-.222c.056-.1.117-.206.181-.311.044-.075.092-.153.142-.228s.114-.178.172-.267c.047-.067.092-.133.142-.2s.111-.158.169-.236c.081-.111.164-.219.25-.331.044-.058.089-.117.136-.175s.114-.144.175-.214a.314.314,0,0,1,.028-.036l.058-.069c.083-.1.169-.2.258-.3.039-.044.075-.086.117-.131.072-.083.15-.167.228-.25l.067-.072c.072-.075.144-.153.219-.228q.146-.15.3-.3c.075-.075.15-.147.228-.219.108-.1.219-.206.331-.308.186-.169.375-.331.561-.492.008-.006.014-.014.022-.019,2.341-1.961,4.755-3.047,6.149-2.83h.006a1.826,1.826,0,0,1,.294.072v0c.053.019.106.039.156.061s.083.042.122.064a.254.254,0,0,0,.036.022,1.267,1.267,0,0,1,.225.192c.022.025.042.05.061.075a2.367,2.367,0,0,1-.178,1.128Z" transform="translate(-28.13 -54.902)" fill="#fff8bc"/>
            <g id="Group_2375" data-name="Group 2375" transform="translate(0 4.671)" opacity="0.2">
              <path id="Path_3196" data-name="Path 3196" d="M38.705,71.72a17.4,17.4,0,0,1-2.675,3.019c-3.1,2.811-6.485,4.122-7.569,2.927a1.742,1.742,0,0,1-.278-1.544.948.948,0,0,0,.1.158c.964,1.292,4.463.308,7.813-2.2A17.947,17.947,0,0,0,38.705,71.72Z" transform="translate(-28.128 -71.72)" fill="#231f20"/>
            </g>
            <g id="Group_2376" data-name="Group 2376" transform="translate(0 9.074)" opacity="0.2">
              <path id="Path_3197" data-name="Path 3197" d="M31.7,87.931a9.394,9.394,0,0,1-3.277,1.133,0,0,0,0,1,0,0c-.022-.028-.042-.056-.061-.083a.07.07,0,0,1-.011-.019c-.019-.031-.036-.061-.053-.092a.942.942,0,0,1-.05-.108.979.979,0,0,1-.042-.117,1.437,1.437,0,0,1-.053-.233,1.953,1.953,0,0,1-.019-.292c0-.047,0-.1.006-.147a.863.863,0,0,1,.008-.119c.006-.036.008-.075.014-.111.008-.056.017-.111.028-.169a.948.948,0,0,0,.1.158C28.813,88.434,30.1,88.462,31.7,87.931Z" transform="translate(-28.13 -87.57)" fill="#231f20"/>
            </g>
            <path id="Path_3198" data-name="Path 3198" d="M38.185,60.387c.837,1.069.061,3.075-1.734,4.481s-3.929,1.68-4.766.611S31.624,62.4,33.419,61s3.929-1.68,4.766-.611Z" transform="translate(-30.453 -58.393)" fill="#ae4736"/>
            <g id="Group_2377" data-name="Group 2377" transform="translate(0.896 2.649)" opacity="0.2">
              <path id="Path_3199" data-name="Path 3199" d="M36.454,68.267c-1.794,1.405-3.927,1.68-4.766.611a1.832,1.832,0,0,1-.294-1.489,1.513,1.513,0,0,0,.294.655c.839,1.069,2.972.794,4.766-.611a5.26,5.26,0,0,0,2.03-2.994C38.715,65.551,37.929,67.112,36.454,68.267Z" transform="translate(-31.353 -64.44)" fill="#231f20"/>
            </g>
          </g>
        </g>
      </g>
    </g>
  </g>
</svg>
