<svg xmlns="http://www.w3.org/2000/svg" xmlns:xlink="http://www.w3.org/1999/xlink" width="48" height="48" viewBox="0 0 48 48">
  <defs>
    <clipPath id="clip-path">
      <rect id="Rectangle_76" data-name="Rectangle 76" width="37.281" height="28.461" transform="translate(0 0)" fill="none"/>
    </clipPath>
    <clipPath id="clip-steps_counter">
      <rect width="48" height="48"/>
    </clipPath>
  </defs>
  <g id="steps_counter" clip-path="url(#clip-steps_counter)">
    <g id="Group_67" data-name="Group 67" transform="translate(5 10.003)">
      <g id="Group_66" data-name="Group 66" transform="translate(0 -0.003)" clip-path="url(#clip-path)">
        <path id="Path_175" data-name="Path 175" d="M36.775,1241.014c0-.462-8.358-.722-18.468-.722S0,1240.666,0,1241.128s8.2.835,18.306.835,18.468-.487,18.468-.949" transform="translate(0 -1213.502)" fill="#2e406b"/>
        <path id="Path_176" data-name="Path 176" d="M847.514,272.362s1.443-1.5,1.937-.227c.188.485-1.937.227-1.937.227" transform="translate(-829.208 -265.756)" fill="#82ceff"/>
        <path id="Path_177" data-name="Path 177" d="M844.687,268.6a10.679,10.679,0,0,1-1.1-.069.086.086,0,0,1-.052-.146,2.5,2.5,0,0,1,1.368-.766.752.752,0,0,1,.712.568.212.212,0,0,1-.019.206c-.061.089-.222.207-.912.207m-.892-.221c.208.02.56.048.892.048.63,0,.748-.1.77-.132,0-.006.012-.017,0-.046-.119-.308-.3-.457-.551-.457a2.036,2.036,0,0,0-1.111.587" transform="translate(-825.294 -261.842)" fill="#2e406b"/>
        <path id="Path_178" data-name="Path 178" d="M1078.375,486.317s3.859-1.99,4.628,3.109-5.745,1.594-4.628-3.109" transform="translate(-1054.956 -475.438)" fill="#2e406b"/>
        <path id="Path_179" data-name="Path 179" d="M557.687,297.821s4.332-5.527,7.416-5.743c1.057-.074.951.366,2.537.339s1.427,5.334,1.427,5.334a2.037,2.037,0,0,0,3.594,1.369c1-1.369,2.648,5.762,4.545,7.926.793.9,4.334,1.328,4.862,1.963a5.277,5.277,0,0,1,.541,2.431s-.151,2.114-3.025,1.48a16.4,16.4,0,0,0-5.021-.37s-13.035-6.783-16.877-14.728" transform="translate(-545.641 -285.76)" fill="#f57871"/>
        <path id="Path_180" data-name="Path 180" d="M576.663,309.211a4.733,4.733,0,0,1-1.01-.121,17.91,17.91,0,0,0-3.805-.423,10.931,10.931,0,0,0-1.187.054.086.086,0,0,1-.05-.009,64.793,64.793,0,0,1-7.009-4.391,46.55,46.55,0,0,1-5.632-4.7,21.484,21.484,0,0,1-4.275-5.677.086.086,0,0,1,.01-.091,30.4,30.4,0,0,1,2.56-2.8,17.1,17.1,0,0,1,2.417-1.974,5.5,5.5,0,0,1,2.5-1c.082-.006.161-.009.234-.009a2.333,2.333,0,0,1,.811.146,3.942,3.942,0,0,0,1.5.2h.013a.8.8,0,0,1,.587.268c1.018,1.049.921,4.941.915,5.152a2.018,2.018,0,0,0,2.006,2.024,1.749,1.749,0,0,0,1.432-.705.432.432,0,0,1,.344-.209c.55,0,1.116,1.323,2,3.482a19.228,19.228,0,0,0,2.34,4.646,7.146,7.146,0,0,0,2.754,1.131,5.532,5.532,0,0,1,2.11.833,5.257,5.257,0,0,1,.561,2.486s0,0,0,.007a1.9,1.9,0,0,1-.312.841,2.026,2.026,0,0,1-1.808.838m-4.815-.716a18.09,18.09,0,0,1,3.842.427,4.559,4.559,0,0,0,.973.117,1.866,1.866,0,0,0,1.665-.761,1.748,1.748,0,0,0,.282-.754,5.184,5.184,0,0,0-.521-2.373,5.791,5.791,0,0,0-2.024-.777,7.013,7.013,0,0,1-2.837-1.184,19.3,19.3,0,0,1-2.371-4.7c-.37-.909-.72-1.768-1.039-2.393-.332-.651-.6-.982-.8-.982a.27.27,0,0,0-.2.138,1.921,1.921,0,0,1-1.571.776,2.187,2.187,0,0,1-2.179-2.192s0,0,0-.007c0-.04.107-4.027-.866-5.03a.629.629,0,0,0-.463-.215h-.01a4.086,4.086,0,0,1-1.553-.21,2.162,2.162,0,0,0-.758-.137c-.069,0-.144,0-.222.008-1.241.087-2.9,1.1-4.81,2.928a30.49,30.49,0,0,0-2.511,2.741c1.988,4.069,6.437,7.824,9.826,10.261a64.959,64.959,0,0,0,6.966,4.367,11.421,11.421,0,0,1,1.181-.052" transform="translate(-541.727 -281.847)" fill="#2e406b"/>
        <path id="Path_181" data-name="Path 181" d="M939.606,690.506a42.163,42.163,0,0,0,1.8,4.955c.584,1.024,3.82,6.313,7.93,5.758l-.416,1.439s-7.642-1.621-9.708-5.782.391-6.37.391-6.37" transform="translate(-918.119 -675.591)" fill="#dd655f"/>
        <path id="Path_182" data-name="Path 182" d="M1425.693,1061.637a5.278,5.278,0,0,0-.541-2.431,1.612,1.612,0,0,0-.76-.377s1.128,1.064-.456,1.17-4.093,1.065-4.531,2.411a.525.525,0,0,0-.005.293,18.089,18.089,0,0,1,3.268.415c2.874.634,3.025-1.48,3.025-1.48" transform="translate(-1388.724 -1035.958)" fill="#82ceff"/>
        <path id="Path_183" data-name="Path 183" d="M1422.668,1170.278c2.874.634,3.025-1.48,3.025-1.48s0-.1-.009-.261c-4.911,1.513-5.239-.182-5.239-.182a2.549,2.549,0,0,0-1.039,1.215.524.524,0,0,0-.005.292,18.123,18.123,0,0,1,3.268.415" transform="translate(-1388.724 -1143.119)" fill="#5cafe2"/>
        <path id="Path_184" data-name="Path 184" d="M1421.307,1055.235a1.644,1.644,0,0,0-.8-.4.086.086,0,0,0-.083.146c.126.119.434.48.348.72-.06.169-.32.273-.75.3a8.031,8.031,0,0,0-2.728.749,3.389,3.389,0,0,0-1.88,1.722.613.613,0,0,0-.007.34.086.086,0,0,0,.081.066,17.962,17.962,0,0,1,3.252.413,4.73,4.73,0,0,0,1.01.121,2.026,2.026,0,0,0,1.808-.838,1.893,1.893,0,0,0,.311-.841.063.063,0,0,0,0-.007,5.256,5.256,0,0,0-.561-2.486m.1,3.244a1.867,1.867,0,0,1-1.66.755,4.558,4.558,0,0,1-.973-.117,18.156,18.156,0,0,0-3.214-.414.41.41,0,0,1,.015-.182,3.231,3.231,0,0,1,1.79-1.62,7.851,7.851,0,0,1,2.664-.732c.511-.034.815-.174.9-.415a.759.759,0,0,0-.179-.66,1.034,1.034,0,0,1,.421.252,5.185,5.185,0,0,1,.521,2.373,1.758,1.758,0,0,1-.286.761" transform="translate(-1384.812 -1032.042)" fill="#2e406b"/>
        <path id="Path_185" data-name="Path 185" d="M566.741,386.471c-1.005-3.541-2.832-3.941-2.832-3.941l-2.531-.592a28.656,28.656,0,0,0-3.69,3.811c1.54,3.184,4.556,6.182,7.618,8.631l1.5.024a19.273,19.273,0,0,0-.062-7.932" transform="translate(-545.641 -373.688)" fill="#5cafe2"/>
        <path id="Path_186" data-name="Path 186" d="M562.889,390.578h0l-1.5-.024a.087.087,0,0,1-.053-.019c-3.737-2.989-6.308-5.9-7.641-8.661a.086.086,0,0,1,.01-.091,28.983,28.983,0,0,1,3.7-3.824.087.087,0,0,1,.075-.018l2.531.592a2.586,2.586,0,0,1,1.078.663,7.078,7.078,0,0,1,1.817,3.338,16.182,16.182,0,0,1,.411,5.324,21.363,21.363,0,0,1-.348,2.65.086.086,0,0,1-.084.068m-1.467-.2,1.4.022a21.863,21.863,0,0,0,.33-2.56,16.005,16.005,0,0,0-.405-5.262,6.931,6.931,0,0,0-1.758-3.248,2.491,2.491,0,0,0-1.011-.632l-2.49-.582a28.81,28.81,0,0,0-3.611,3.728c1.326,2.714,3.865,5.585,7.547,8.534" transform="translate(-541.727 -369.776)" fill="#2e406b"/>
        <path id="Path_187" data-name="Path 187" d="M577.479,292.367c-.7-.108-.838-.346-1.637-.289-1.305.092-2.834,1.135-4.164,2.307-.739.838-1.614,1.941-2.651,3.387q-.193.27-.365.517a17.053,17.053,0,0,0,1.234,1.966c.941-.653,1.756-1.308,1.756-1.308s2.443-4.933,5.827-6.579" transform="translate(-556.38 -285.761)" fill="#5cafe2"/>
        <path id="Path_188" data-name="Path 188" d="M565.983,296.426a.086.086,0,0,1-.07-.036,17.206,17.206,0,0,1-1.24-1.976.087.087,0,0,1,.005-.09c.116-.166.239-.341.366-.518.969-1.352,1.863-2.494,2.656-3.394l.008-.008c1.661-1.465,3.079-2.249,4.215-2.328.082-.006.161-.009.234-.009a2.334,2.334,0,0,1,.811.145,3.568,3.568,0,0,0,.612.153.086.086,0,0,1,.025.163h0a12.375,12.375,0,0,0-4.149,3.879,21.528,21.528,0,0,0-1.637,2.66.085.085,0,0,1-.023.029c-.008.007-.828.664-1.76,1.312a.086.086,0,0,1-.049.015m-1.133-2.046A16.994,16.994,0,0,0,566,296.22c.83-.58,1.556-1.156,1.666-1.244a21.926,21.926,0,0,1,1.643-2.667,17.025,17.025,0,0,1,1.854-2.2,9.474,9.474,0,0,1,2.136-1.624c-.151-.035-.275-.075-.389-.112a2.163,2.163,0,0,0-.758-.137c-.069,0-.144,0-.222.008-1.1.077-2.478.845-4.108,2.282-.789.9-1.678,2.031-2.642,3.376-.116.161-.228.32-.334.472" transform="translate(-552.466 -281.846)" fill="#2e406b"/>
        <path id="Path_189" data-name="Path 189" d="M566.13,404.09a9.267,9.267,0,0,0-5.107-8.243,29.278,29.278,0,0,0-3.337,3.51c1.534,3.173,4.533,6.16,7.584,8.6a9.1,9.1,0,0,0,.86-3.871" transform="translate(-545.64 -387.297)" fill="#2e406b"/>
        <path id="Path_190" data-name="Path 190" d="M987.55,958.043c-2.643-.324-10.889-2.225-10.889-2.225a2.828,2.828,0,0,0,.248,1.338c1.2.888,2.374,1.679,3.42,2.351a8.145,8.145,0,0,0,.97.208s-.25-.766,4.665-.766,2.213-1.88,2.211-1.881l-.626.975" transform="translate(-955.562 -935.172)" fill="#fff"/>
        <path id="Path_191" data-name="Path 191" d="M980.33,959.508a8.152,8.152,0,0,0,.97.208s-.094-.286.958-.509a14.565,14.565,0,0,1-2.445-2.681c-1.792-.394-3.15-.707-3.15-.707a2.972,2.972,0,0,0,.057.758,5.941,5.941,0,0,0,.536.832c1.082.786,2.129,1.491,3.075,2.1" transform="translate(-955.562 -935.173)" fill="#82ceff"/>
        <path id="Path_192" data-name="Path 192" d="M984.314,953.082a.086.086,0,0,0-.122.024l-.6.93c-2.665-.339-10.744-2.2-10.826-2.217a.086.086,0,0,0-.106.08,2.927,2.927,0,0,0,.256,1.379.086.086,0,0,0,.027.034c1.079.8,2.231,1.588,3.425,2.354a.086.086,0,0,0,.024.011,8.144,8.144,0,0,0,.982.21h.011a.086.086,0,0,0,.087-.086.09.09,0,0,0,0-.021.131.131,0,0,1,.041-.07c.166-.177.942-.589,4.54-.589,1.862,0,2.848-.261,3.016-.8.182-.585-.717-1.214-.755-1.24m.59,1.19c-.1.308-.67.676-2.85.676-2.71,0-4.379.243-4.7.684a.311.311,0,0,0-.038.069,8.746,8.746,0,0,1-.862-.189c-1.179-.757-2.319-1.54-3.386-2.327a2.735,2.735,0,0,1-.234-1.174c.958.22,8.338,1.9,10.8,2.2a.086.086,0,0,0,.083-.039l.576-.9c.26.2.725.648.616.994" transform="translate(-951.65 -931.258)" fill="#2e406b"/>
        <path id="Path_193" data-name="Path 193" d="M381.671,558.227s.753-1.392,1.757-1.656,1.691-1.48,2.326-1.48,2.643.317,4.545,2.854,6.8,12.582,18.182,11.892c1.744-.106,1.915-1.057,1.915-1.057s.623,1.811-.194,1.833-10.336,1.391-12.925-.565-15.605-11.822-15.605-11.822" transform="translate(-373.427 -543.101)" fill="#fff"/>
        <path id="Path_194" data-name="Path 194" d="M393.522,562.554c-1.535-1.933-2.561-3.725-3.223-4.608-1.9-2.537-3.911-2.854-4.545-2.854s-1.321,1.216-2.326,1.48-1.757,1.656-1.757,1.656,5.49,4.161,10.048,7.614a9.209,9.209,0,0,0,1.8-3.288" transform="translate(-373.426 -543.101)" fill="#82ceff"/>
        <path id="Path_195" data-name="Path 195" d="M406.564,564.838a.086.086,0,0,0-.167.013c0,.009-.178.886-1.835.986-.369.022-.74.034-1.1.034-9.18,0-13.884-7.176-16.145-10.625-.334-.509-.622-.948-.861-1.267a7.769,7.769,0,0,0-2.78-2.4,4.34,4.34,0,0,0-1.835-.484c-.341,0-.67.294-1.05.635a3.407,3.407,0,0,1-1.3.848c-1.029.271-1.78,1.64-1.811,1.7a.086.086,0,0,0,.024.11c.13.1,13.045,9.888,15.605,11.822.939.709,2.872,1.069,5.746,1.069a62.884,62.884,0,0,0,6.395-.407c.421-.044.725-.076.84-.079a.449.449,0,0,0,.378-.2c.33-.476-.086-1.7-.1-1.752m-.038,1.654a.281.281,0,0,1-.24.121c-.121,0-.412.034-.853.08a62.727,62.727,0,0,1-6.377.406c-2.835,0-4.733-.348-5.641-1.034-2.47-1.865-14.576-11.042-15.544-11.775a3.483,3.483,0,0,1,1.667-1.55,3.534,3.534,0,0,0,1.369-.886c.354-.317.66-.591.935-.591a4.216,4.216,0,0,1,1.759.467,7.6,7.6,0,0,1,2.717,2.353c.235.314.522.751.854,1.258,2.277,3.474,7.016,10.7,16.29,10.7.366,0,.74-.011,1.112-.034a2.569,2.569,0,0,0,1.666-.592,1.3,1.3,0,0,0,.232-.3c.116.416.246,1.094.055,1.37" transform="translate(-369.513 -539.187)" fill="#2e406b"/>
        <path id="Path_196" data-name="Path 196" d="M839.513,944.106c-2.08-2.2-3.505-1.891-3.505-1.891a13.09,13.09,0,0,0,8.05,6.7s-2.465-2.61-4.544-4.809" transform="translate(-817.95 -921.849)" fill="#82ceff"/>
        <path id="Path_197" data-name="Path 197" d="M837.552,942.573a2.572,2.572,0,0,0-1.544-.357,15.351,15.351,0,0,0,.909,1.478,9.2,9.2,0,0,0,.635-1.121" transform="translate(-817.95 -921.85)" fill="#5cafe2"/>
        <path id="Path_198" data-name="Path 198" d="M402.739,676.628c0-.055-.044-.083-.118-.083-.1,0-.379.021-.807.054-1.273.1-3.643.276-5.91.276-.208,0-.412,0-.608,0-4-.063-5.911-2.2-7.761-4.275a10.284,10.284,0,0,0-4.1-3.278,7.671,7.671,0,0,1-1.851-1.72c-1.585-1.731-3.755-4.1-5.965-4.1-.048,0-.1,0-.145,0-.879.042-1.427.3-1.628.771-.438,1.025.956,2.659,1.036,2.752.8,1.033,2.614,2.33,5.391,3.854l.131.072a2.274,2.274,0,0,1,.312.387,12.356,12.356,0,0,0,3.887,3.576,20.923,20.923,0,0,0,10.748,2.491h0a43.528,43.528,0,0,0,7.124-.641l.151-.027c.043-.009.122-.026.115-.106" transform="translate(-365.684 -649.164)" fill="#2e406b"/>
        <path id="Path_199" data-name="Path 199" d="M1242.276,615.768c.762,1.766,2.061,4.334,3.436,4.38s.626-.975.626-.975a2.777,2.777,0,0,1-1.049-.61c-1.852-2.112-3.463-8.957-4.472-8.01l-.073.084c-.02.027-.04.053-.061.078-.686,1,.955,3.574,1.594,5.054" transform="translate(-1213.723 -597.277)" fill="#5cafe2"/>
        <path id="Path_200" data-name="Path 200" d="M1241.834,616.322l-.09,0c-1.077-.036-2.259-1.527-3.512-4.432-.145-.336-.343-.73-.552-1.148-.746-1.487-1.591-3.172-1.033-3.989l0-.006c.023-.028.041-.051.058-.074l.005-.006.072-.082.006-.007a.376.376,0,0,1,.26-.113c.55,0,1.116,1.323,2,3.482a19.232,19.232,0,0,0,2.34,4.646,2.652,2.652,0,0,0,1.015.587.086.086,0,0,1,.039.03c.014.019.34.471.171.8-.1.206-.367.311-.78.311m-5.047-9.47c-.5.735.359,2.44,1.047,3.811.211.42.41.817.557,1.157a17.276,17.276,0,0,0,1.48,2.82c.668.981,1.3,1.488,1.879,1.507l.084,0c.235,0,.535-.038.625-.216s-.06-.481-.143-.6a2.754,2.754,0,0,1-1.058-.624,19.3,19.3,0,0,1-2.371-4.695c-.37-.909-.72-1.768-1.039-2.393-.332-.651-.6-.982-.8-.982a.205.205,0,0,0-.139.063l-.068.078c-.017.024-.036.048-.059.075" transform="translate(-1209.758 -593.363)" fill="#2e406b"/>
        <path id="Path_201" data-name="Path 201" d="M1260.262,640.788c-.1-.23-.269-.385-.423-.385a.218.218,0,0,0-.087.018c-.169.073-.206.341-.084.623.1.23.27.385.424.385a.218.218,0,0,0,.087-.018c.169-.073.205-.341.084-.623" transform="translate(-1232.389 -626.57)" fill="#2e406b"/>
        <path id="Path_202" data-name="Path 202" d="M1290.789,723.851c-.1-.23-.269-.385-.424-.385a.219.219,0,0,0-.087.017c-.169.073-.205.341-.084.623.1.23.269.385.424.385a.217.217,0,0,0,.087-.018.285.285,0,0,0,.154-.261.794.794,0,0,0-.07-.362" transform="translate(-1262.257 -707.839)" fill="#2e406b"/>
        <path id="Path_203" data-name="Path 203" d="M1324.1,796.823c-.1-.23-.269-.385-.424-.385a.218.218,0,0,0-.087.018.285.285,0,0,0-.154.261.791.791,0,0,0,.07.362c.1.23.269.385.424.385a.218.218,0,0,0,.087-.018c.169-.073.205-.341.084-.623" transform="translate(-1294.849 -779.235)" fill="#2e406b"/>
        <path id="Path_204" data-name="Path 204" d="M1359.237,876.81c-.1-.23-.269-.385-.424-.385a.218.218,0,0,0-.087.018.286.286,0,0,0-.154.261.8.8,0,0,0,.07.362c.1.23.269.385.424.385a.218.218,0,0,0,.087-.018.286.286,0,0,0,.154-.261.793.793,0,0,0-.07-.362" transform="translate(-1329.226 -857.494)" fill="#2e406b"/>
        <path id="Path_205" data-name="Path 205" d="M1406.147,958.64a.612.612,0,0,0-.442-.3.224.224,0,0,0-.13.038.286.286,0,0,0-.1.286.791.791,0,0,0,.138.342.612.612,0,0,0,.442.3.225.225,0,0,0,.13-.038c.152-.1.136-.374-.037-.628" transform="translate(-1375.114 -937.639)" fill="#2e406b"/>
        <path id="Path_206" data-name="Path 206" d="M1465.4,1015.435a.621.621,0,0,0-.306-.124.714.714,0,0,0-.1-.006c-.225,0-.4.109-.418.264a.29.29,0,0,0,.121.26.619.619,0,0,0,.306.124.719.719,0,0,0,.1.006c.225,0,.4-.109.418-.264a.29.29,0,0,0-.121-.26" transform="translate(-1432.947 -993.374)" fill="#2e406b"/>
        <path id="Path_207" data-name="Path 207" d="M1272.8,638.7c.034.167-.033.322-.151.346l-.751.155c-.118.024-.242-.091-.276-.258s.033-.322.151-.347l.752-.155c.118-.024.241.091.276.259" transform="translate(-1244.143 -624.652)" fill="#fff"/>
        <path id="Path_208" data-name="Path 208" d="M1267.949,635.382a.376.376,0,0,1-.329-.331.466.466,0,0,1,.024-.279.278.278,0,0,1,.194-.17l.752-.155a.245.245,0,0,1,.049-.005.376.376,0,0,1,.329.331.355.355,0,0,1-.218.449l-.752.155a.242.242,0,0,1-.049.005m.69-.766h-.014l-.752.155a.112.112,0,0,0-.071.07.3.3,0,0,0-.013.175c.025.119.1.193.16.193h.014l.752-.155c.061-.013.11-.116.084-.245s-.1-.193-.16-.193" transform="translate(-1240.229 -620.739)" fill="#2e406b"/>
        <path id="Path_209" data-name="Path 209" d="M1305.179,717.625c.056.161.009.324-.1.363l-.725.253c-.114.04-.251-.059-.307-.22s-.009-.324.1-.363l.725-.253c.114-.04.251.059.308.22" transform="translate(-1275.852 -701.901)" fill="#fff"/>
        <path id="Path_210" data-name="Path 210" d="M1300.382,714.423a.392.392,0,0,1-.337-.287.468.468,0,0,1-.013-.279.279.279,0,0,1,.171-.194l.725-.253a.244.244,0,0,1,.081-.014.393.393,0,0,1,.337.287.355.355,0,0,1-.157.473l-.725.253a.244.244,0,0,1-.081.014m.626-.853a.072.072,0,0,0-.024,0l-.724.253a.113.113,0,0,0-.061.078.3.3,0,0,0,.01.175c.039.111.118.171.173.171a.075.075,0,0,0,.024,0l.725-.253c.059-.021.094-.13.051-.253s-.118-.171-.174-.171" transform="translate(-1271.937 -697.988)" fill="#2e406b"/>
        <path id="Path_211" data-name="Path 211" d="M1337.826,791.408c.056.161.01.324-.1.363l-.725.253c-.114.04-.251-.059-.307-.22s-.009-.324.1-.363l.725-.253c.114-.04.251.059.307.22" transform="translate(-1307.794 -774.09)" fill="#fff"/>
        <path id="Path_212" data-name="Path 212" d="M1333.012,788.206a.392.392,0,0,1-.337-.287.355.355,0,0,1,.157-.474l.725-.253a.246.246,0,0,1,.081-.014.393.393,0,0,1,.337.287.355.355,0,0,1-.157.473l-.725.253a.244.244,0,0,1-.081.014m.626-.853a.073.073,0,0,0-.024,0l-.725.252c-.059.021-.094.13-.051.253s.118.171.174.171a.072.072,0,0,0,.024,0l.725-.253c.059-.021.094-.13.051-.253s-.118-.171-.174-.171" transform="translate(-1303.861 -770.177)" fill="#2e406b"/>
        <path id="Path_213" data-name="Path 213" d="M1372.432,871.068c.056.161.009.324-.1.363l-.725.253c-.114.04-.251-.059-.308-.22s-.009-.324.1-.363l.725-.253c.114-.04.251.059.308.22" transform="translate(-1341.652 -852.03)" fill="#fff"/>
        <path id="Path_214" data-name="Path 214" d="M1367.619,867.866a.393.393,0,0,1-.337-.287.355.355,0,0,1,.157-.473l.725-.253a.244.244,0,0,1,.081-.014.392.392,0,0,1,.337.287.468.468,0,0,1,.013.279.278.278,0,0,1-.17.194l-.725.253a.245.245,0,0,1-.081.014m.626-.853a.073.073,0,0,0-.024,0l-.725.253c-.059.02-.094.13-.051.253s.118.171.174.171a.073.073,0,0,0,.024,0l.725-.253a.113.113,0,0,0,.061-.078.3.3,0,0,0-.01-.175c-.039-.111-.118-.171-.174-.171" transform="translate(-1337.72 -848.116)" fill="#2e406b"/>
        <path id="Path_215" data-name="Path 215" d="M1419.632,945.682a.276.276,0,0,1-.048.375l-.678.36c-.106.056-.257-.02-.337-.171a.276.276,0,0,1,.048-.375l.678-.36c.106-.056.258.02.338.171" transform="translate(-1387.88 -925.07)" fill="#fff"/>
        <path id="Path_216" data-name="Path 216" d="M1414.891,942.609a.408.408,0,0,1-.337-.235.355.355,0,0,1,.083-.492l.678-.36a.248.248,0,0,1,.117-.029.408.408,0,0,1,.337.235.468.468,0,0,1,.056.274.279.279,0,0,1-.139.218l-.678.36a.247.247,0,0,1-.117.029m.542-.943a.076.076,0,0,0-.036.009l-.678.36c-.055.029-.073.142-.012.258a.241.241,0,0,0,.184.143.077.077,0,0,0,.036-.009l.678-.36a.113.113,0,0,0,.049-.087.3.3,0,0,0-.037-.172.241.241,0,0,0-.184-.143" transform="translate(-1383.942 -921.157)" fill="#2e406b"/>
        <path id="Path_217" data-name="Path 217" d="M1474.573,980.4c.169.022.295.13.28.242l-.092.712c-.015.112-.163.184-.333.162s-.295-.13-.28-.242l.092-.712c.014-.112.163-.184.332-.162" transform="translate(-1442.305 -959.215)" fill="#fff"/>
        <path id="Path_218" data-name="Path 218" d="M1470.574,977.69a.555.555,0,0,1-.071,0c-.22-.028-.376-.177-.355-.339l.092-.712a.327.327,0,0,1,.358-.242.552.552,0,0,1,.071,0,.487.487,0,0,1,.254.108.263.263,0,0,1,.1.231l-.092.712a.327.327,0,0,1-.358.242m.025-1.124c-.108,0-.181.047-.187.091l-.092.712c-.007.055.079.129.206.145a.382.382,0,0,0,.049,0c.108,0,.181-.047.187-.091l.092-.712c0-.034-.028-.066-.042-.078a.319.319,0,0,0-.164-.067.389.389,0,0,0-.049,0" transform="translate(-1438.391 -955.303)" fill="#2e406b"/>
        <path id="Path_219" data-name="Path 219" d="M976.832,305.858c1.742,3.007.676,3.89,1.465,5.853,1.277,3.178,3.339,1.914,4.085,1.275a2.066,2.066,0,0,1-3.223-1.744s.159-5.36-1.427-5.334a5.33,5.33,0,0,1-.9-.05h0" transform="translate(-955.732 -299.251)" fill="#82ceff"/>
        <path id="Path_220" data-name="Path 220" d="M976.628,309.952a1.889,1.889,0,0,1-1.227-.458,4.115,4.115,0,0,1-1.1-1.665,5.452,5.452,0,0,1-.361-2.068,6.841,6.841,0,0,0-1.1-3.774l0-.01a.086.086,0,0,1,.093-.119,4.966,4.966,0,0,0,.752.05h.133a.8.8,0,0,1,.6.268c1.018,1.049.921,4.941.915,5.152a2.018,2.018,0,0,0,2.006,2.024,1.785,1.785,0,0,0,1.079-.348.086.086,0,0,1,.108.135,3.174,3.174,0,0,1-1.9.815m-3.549-7.9a6.982,6.982,0,0,1,1.036,3.7,5.312,5.312,0,0,0,.348,2.009c.537,1.337,1.265,2.015,2.165,2.015a2.359,2.359,0,0,0,1.062-.285,2.1,2.1,0,0,1-.352.029,2.187,2.187,0,0,1-2.179-2.192s0,0,0-.007c0-.04.107-4.027-.867-5.03a.628.628,0,0,0-.462-.215h-.146a5.637,5.637,0,0,1-.6-.029" transform="translate(-951.819 -295.337)" fill="#2e406b"/>
        <path id="Path_221" data-name="Path 221" d="M39.368,362.063c-.552.652-1.3.929-1.663.619s-.215-1.09.338-1.742,1.3-.929,1.663-.619.215,1.09-.338,1.742" transform="translate(-36.696 -352.414)" fill="#fff"/>
        <path id="Path_222" data-name="Path 222" d="M39.838,374c-.233-.2-.724.15-1.276.8-.074.087-.145.173-.212.256l-.11.14c-.51.586-.434-.414-.434-.414-.522.926-.131,1.282.047,1.423.233.2,1-.038,1.553-.69s.666-1.319.433-1.517" transform="translate(-36.733 -365.87)" fill="#82ceff"/>
        <path id="Path_223" data-name="Path 223" d="M34.16,358.983a.663.663,0,0,1-.436-.147.829.829,0,0,1-.2-.825,2.363,2.363,0,0,1,.532-1.039A1.959,1.959,0,0,1,35.4,356.2a.663.663,0,0,1,.436.147.828.828,0,0,1,.2.825,2.363,2.363,0,0,1-.532,1.039,1.959,1.959,0,0,1-1.348.777m1.24-2.615a1.815,1.815,0,0,0-1.216.716c-.512.6-.671,1.346-.348,1.62a.487.487,0,0,0,.325.106,1.815,1.815,0,0,0,1.216-.716,2.189,2.189,0,0,0,.494-.96.668.668,0,0,0-.146-.66.487.487,0,0,0-.325-.106" transform="translate(-32.77 -348.501)" fill="#2e406b"/>
        <path id="Path_224" data-name="Path 224" d="M79.3,400.289c-.183-.155-.584.018-.9.386s-.416.792-.233.947l2.512,2.128,1.129-1.333Z" transform="translate(-76.389 -391.587)" fill="#fff"/>
        <path id="Path_225" data-name="Path 225" d="M80.426,400.608c-.848,0-1.26,1.139-1.03,1.382l1.669,1.414.482-.881s-.71-.614-1.174-1.018c-.412-.358.1-.9.054-.9" transform="translate(-77.619 -391.955)" fill="#82ceff"/>
        <path id="Path_226" data-name="Path 226" d="M80.038,402.669a18.646,18.646,0,0,1-1.482-1.272c-.383-.4.641-1.153.641-1.154a.979.979,0,0,0-.8.434c-.312.368-.416.792-.233.947l1.924,1.631Z" transform="translate(-76.39 -391.59)" fill="#2e406b"/>
        <path id="Path_227" data-name="Path 227" d="M76.759,399.923a.086.086,0,0,1-.056-.02l-2.512-2.128a.458.458,0,0,1-.1-.48,1.509,1.509,0,0,1,.32-.589,1.192,1.192,0,0,1,.789-.473.347.347,0,0,1,.228.077l2.512,2.128a.086.086,0,0,1,.01.122l-1.129,1.333a.086.086,0,0,1-.066.031M75.2,396.4a1.041,1.041,0,0,0-.657.412,1.334,1.334,0,0,0-.284.518c-.035.143-.02.255.041.307l2.446,2.073,1.018-1.2-2.446-2.073a.176.176,0,0,0-.117-.036" transform="translate(-72.471 -387.673)" fill="#2e406b"/>
        <path id="Path_228" data-name="Path 228" d="M737.287,276.763c-.722-.458-1.1-1.157-.841-1.562s1.05-.362,1.772.1,1.1,1.157.841,1.562-1.05.362-1.772-.1" transform="translate(-720.46 -268.985)" fill="#fff"/>
        <path id="Path_229" data-name="Path 229" d="M739.058,277.434a.607.607,0,0,0,.058-.476c0,.027-.137.748-.42.108a2.062,2.062,0,0,0-1.68-1.071c-.475.032-.119-.471-.109-.484a.632.632,0,0,0-.462.265c-.257.4.12,1.1.841,1.562s1.515.5,1.772.1" transform="translate(-720.459 -269.56)" fill="#82ceff"/>
        <path id="Path_230" data-name="Path 230" d="M734.489,273.309a2.314,2.314,0,0,1-1.183-.387,2.364,2.364,0,0,1-.817-.833.829.829,0,0,1-.051-.848.8.8,0,0,1,.708-.318,2.314,2.314,0,0,1,1.182.387,2.363,2.363,0,0,1,.817.833.828.828,0,0,1,.051.848.8.8,0,0,1-.708.318m-1.342-2.213a.633.633,0,0,0-.562.238c-.227.358.146,1.019.815,1.443a2.139,2.139,0,0,0,1.09.36.633.633,0,0,0,.563-.238c.227-.358-.146-1.019-.815-1.443a2.139,2.139,0,0,0-1.09-.36" transform="translate(-716.525 -265.071)" fill="#2e406b"/>
        <path id="Path_231" data-name="Path 231" d="M677.244,316.668c.128-.2-.1-.576-.5-.835s-.842-.3-.97-.1l-1.764,2.78,1.475.936Z" transform="translate(-659.447 -308.789)" fill="#fff"/>
        <path id="Path_232" data-name="Path 232" d="M722.784,318.829a1.327,1.327,0,0,0-.075-.157,1.069,1.069,0,0,0-1.042-.627c-.787.1-1.128,1.673-1.128,1.673l.332.188s.811-1.229.941-1.437.849.24.685.5c-.232.371-.933,1.478-.933,1.478l.2.184,1.007-1.586-.022-.127Z" transform="translate(-704.975 -311.168)" fill="#82ceff"/>
        <path id="Path_233" data-name="Path 233" d="M713.8,315.834c-.407-.258-.842-.3-.97-.1l-.946,1.49.281.175,1.028-1.526c.1-.148,1.237.2,1.007.845l.1-.048c.128-.2-.1-.576-.5-.835" transform="translate(-696.512 -308.789)" fill="#2e406b"/>
        <path id="Path_234" data-name="Path 234" d="M671.566,315.62a.086.086,0,0,1-.046-.013l-1.475-.936a.086.086,0,0,1-.027-.119l1.764-2.78a.419.419,0,0,1,.373-.167,1.415,1.415,0,0,1,.717.241c.455.288.688.707.532.954l-1.764,2.78a.086.086,0,0,1-.054.038l-.019,0m-1.356-1.049,1.329.843,1.718-2.707c.088-.139-.087-.467-.478-.715a1.26,1.26,0,0,0-.624-.215.272.272,0,0,0-.227.086Z" transform="translate(-655.532 -304.874)" fill="#2e406b"/>
        <path id="Path_235" data-name="Path 235" d="M246.169,7.2a3.849,3.849,0,0,0-7.635.384,3.849,3.849,0,0,0,7.635-.384m-3.682,2.88a2.876,2.876,0,0,1-3.162-2.536,3.052,3.052,0,0,1,6.054-.3,2.876,2.876,0,0,1-2.892,2.84" transform="translate(-233.378 -3.911)" fill="#fff"/>
        <path id="Path_236" data-name="Path 236" d="M238.387,6.96a3.684,3.684,0,0,1-3.855-3.286,3.278,3.278,0,0,1,1.023-2.519A4.139,4.139,0,0,1,238.262,0c.074,0,.15-.006.224-.006a3.684,3.684,0,0,1,3.855,3.286A3.278,3.278,0,0,1,241.316,5.8a4.139,4.139,0,0,1-2.706,1.153c-.074,0-.149.006-.223.006m.1-6.791c-.071,0-.144,0-.215.005a3.967,3.967,0,0,0-2.593,1.1,3.107,3.107,0,0,0-.972,2.387,3.513,3.513,0,0,0,3.682,3.121c.071,0,.144,0,.215-.005a3.967,3.967,0,0,0,2.593-1.1,3.107,3.107,0,0,0,.972-2.387A3.512,3.512,0,0,0,238.485.17M238.4,6.258a2.939,2.939,0,0,1-3.074-2.622,2.617,2.617,0,0,1,.817-2.011A3.3,3.3,0,0,1,238.3.7c.059,0,.119,0,.178,0a2.939,2.939,0,0,1,3.074,2.622,2.617,2.617,0,0,1-.817,2.011,3.3,3.3,0,0,1-2.157.919c-.059,0-.119,0-.178,0m.078-5.385c-.056,0-.113,0-.17,0a3.128,3.128,0,0,0-2.045.87,2.447,2.447,0,0,0-.765,1.879,2.767,2.767,0,0,0,2.9,2.458c.056,0,.113,0,.17,0a3.128,3.128,0,0,0,2.045-.87,2.446,2.446,0,0,0,.765-1.879,2.767,2.767,0,0,0-2.9-2.458" transform="translate(-229.463 0.003)" fill="#2e406b"/>
        <path id="Path_237" data-name="Path 237" d="M328.586,123.88c.124.749-.7,1.51-1.843,1.7s-2.167-.266-2.291-1.015.7-1.509,1.843-1.7,2.167.266,2.291,1.015" transform="translate(-317.431 -120.169)" fill="#fff"/>
        <path id="Path_238" data-name="Path 238" d="M326.743,140.428a2.417,2.417,0,0,0,1.7-1.008s-.063-.6-1.289-.522-2.316.113-1.739-.9a1.463,1.463,0,0,0-.962,1.413c.124.749,1.15,1.2,2.291,1.015" transform="translate(-317.431 -135.019)" fill="#82ceff"/>
        <path id="Path_239" data-name="Path 239" d="M322.31,121.793c-.987,0-1.754-.465-1.864-1.13a1.274,1.274,0,0,1,.474-1.137,2.813,2.813,0,0,1,1.441-.66,3.245,3.245,0,0,1,.527-.044c.987,0,1.754.465,1.864,1.13a1.274,1.274,0,0,1-.474,1.137,2.813,2.813,0,0,1-1.441.66,3.246,3.246,0,0,1-.527.044m.577-2.8a3.071,3.071,0,0,0-.5.041,2.639,2.639,0,0,0-1.352.617,1.109,1.109,0,0,0-.42.982c.1.58.792.986,1.693.986a3.068,3.068,0,0,0,.5-.041c1.093-.18,1.888-.9,1.772-1.6-.1-.58-.792-.986-1.693-.986" transform="translate(-313.511 -116.255)" fill="#2e406b"/>
        <path id="Path_240" data-name="Path 240" d="M375.544,198.59a.028.028,0,0,1,0-.007c-.039-.285-.6-.444-1.258-.354s-1.156.393-1.117.678l1.117,6.686,2.383-.316Z" transform="translate(-365.106 -193.923)" fill="#fff"/>
        <path id="Path_241" data-name="Path 241" d="M375.646,199.1s-1.265-.394-1.18.26c.057.447.38,2.3.38,2.3l-1.158.241-.422-2.519s.038-.636,1.191-.687,1.168.271,1.191.4" transform="translate(-365.203 -194.401)" fill="#82ceff"/>
        <path id="Path_242" data-name="Path 242" d="M374.753,198.692s-1.216.08-1.094.813.41,2.313.41,2.313-.369.331-.41.085l-.422-2.519s-.076-.724,1.516-.692" transform="translate(-365.175 -194.399)" fill="#2e406b"/>
        <path id="Path_243" data-name="Path 243" d="M370.37,201.767a.086.086,0,0,1-.085-.072l-1.117-6.686v0c-.024-.174.1-.351.339-.5a2.277,2.277,0,0,1,.852-.278,2.755,2.755,0,0,1,.371-.026c.56,0,.946.178.984.454v0l1.124,6.688a.086.086,0,0,1-.074.1l-2.383.316h-.011m-1.031-6.786,1.1,6.6,2.212-.294-1.108-6.589a.085.085,0,0,1,0-.015s0,0,0-.006c-.027-.176-.368-.3-.812-.3a2.579,2.579,0,0,0-.348.024,2.1,2.1,0,0,0-.786.254c-.176.107-.27.226-.257.326" transform="translate(-361.191 -190.009)" fill="#2e406b"/>
        <path id="Path_244" data-name="Path 244" d="M246.169,7.2a3.849,3.849,0,0,0-7.635.384,3.523,3.523,0,0,0,3.217,3.168.451.451,0,0,0,.212-.412c0-.229-.221-.3-.335-.326a2.818,2.818,0,0,1-2.3-2.47,3.052,3.052,0,0,1,6.054-.3,2.651,2.651,0,0,1-1.384,2.4l.125.746A3.4,3.4,0,0,0,246.169,7.2" transform="translate(-233.378 -3.91)" fill="#fff"/>
        <path id="Path_245" data-name="Path 245" d="M392.916,287.613l.006,0-.006,0" transform="translate(-384.429 -281.401)" fill="#82ceff"/>
        <path id="Path_246" data-name="Path 246" d="M392.813,287.586h0" transform="translate(-384.328 -281.374)" fill="#82ceff"/>
        <path id="Path_247" data-name="Path 247" d="M393.18,287.684h0" transform="translate(-384.687 -281.47)" fill="#82ceff"/>
        <path id="Path_248" data-name="Path 248" d="M267.973,25.214c-.088-1.872-1.506-2.96-3.468-2.854a3.059,3.059,0,0,0-3.166,3.267,3.894,3.894,0,0,0,.854,1.813,2.716,2.716,0,0,0,1.559.673c-.654.387-2.062-.6-2.062-.6a4.139,4.139,0,0,0,2.372,1.195c.135.02.212-.412.112-.63-.049-.107-.152-.1-.244-.068a2.612,2.612,0,0,1-1.937-1.376,2.361,2.361,0,0,1-.357-1.134,3.052,3.052,0,0,1,6.054-.3,2.458,2.458,0,0,1-.366,1.412c-.186.508-.575.662-1.018.985a2.841,2.841,0,0,0,1.333-.957,2.738,2.738,0,0,0,.333-1.426" transform="translate(-255.69 -21.87)" fill="#82ceff"/>
        <path id="Path_249" data-name="Path 249" d="M394.022,287.909h0" transform="translate(-385.511 -281.69)" fill="#82ceff"/>
        <path id="Path_250" data-name="Path 250" d="M393.9,287.877h0" transform="translate(-385.396 -281.659)" fill="#82ceff"/>
        <path id="Path_251" data-name="Path 251" d="M393.325,287.723l.013,0-.013,0" transform="translate(-384.829 -281.508)" fill="#82ceff"/>
        <path id="Path_252" data-name="Path 252" d="M494.576,227.546s.615-.073,1.75-1.234a3.426,3.426,0,0,1-1.691,1.585Z" transform="translate(-483.893 -221.424)" fill="#82ceff"/>
        <path id="Path_253" data-name="Path 253" d="M237.834,6.925h-.011a4.03,4.03,0,0,1-2.285-1.079,3.262,3.262,0,0,1-1.007-2.171,3.278,3.278,0,0,1,1.023-2.519A4.139,4.139,0,0,1,238.261,0c.074,0,.15-.006.224-.006a3.684,3.684,0,0,1,3.855,3.286,3.2,3.2,0,0,1-.535,1.926,3.819,3.819,0,0,1-1.563,1.339.086.086,0,0,1-.122-.064l-.125-.746a.086.086,0,0,1,.042-.089,2.576,2.576,0,0,0,1.342-2.318,2.767,2.767,0,0,0-2.9-2.458c-.056,0-.113,0-.17,0a3.128,3.128,0,0,0-2.045.87,2.446,2.446,0,0,0-.765,1.879,2.715,2.715,0,0,0,2.238,2.391c.265.066.4.2.4.409a.535.535,0,0,1-.259.489.086.086,0,0,1-.039.009m.65-6.755c-.071,0-.144,0-.215.005a3.967,3.967,0,0,0-2.593,1.1,3.107,3.107,0,0,0-.972,2.387,3.44,3.44,0,0,0,3.111,3.083.38.38,0,0,0,.145-.321c0-.121-.084-.2-.269-.242a3.406,3.406,0,0,1-1.643-.919,2.512,2.512,0,0,1-.726-1.631,2.617,2.617,0,0,1,.817-2.011A3.3,3.3,0,0,1,238.3.7c.059,0,.119,0,.178,0a2.939,2.939,0,0,1,3.075,2.622,2.549,2.549,0,0,1-.358,1.426,2.98,2.98,0,0,1-1.018,1.019l.1.574a3.3,3.3,0,0,0,1.9-3.05A3.512,3.512,0,0,0,238.484.17" transform="translate(-229.462 0.003)" fill="#2e406b"/>
        <path id="Path_254" data-name="Path 254" d="M106.183,364.508A8.826,8.826,0,0,0,94.4,362.1a7.781,7.781,0,0,0-2.288,11.178,8.827,8.827,0,0,0,11.779,2.4,7.781,7.781,0,0,0,2.288-11.178m-12.617,7.87a6.177,6.177,0,0,1,1.816-8.874,7.007,7.007,0,0,1,9.351,1.909,6.177,6.177,0,0,1-1.816,8.874,7.008,7.008,0,0,1-9.351-1.909" transform="translate(-88.705 -353.016)" fill="#2e406b"/>
        <path id="Path_255" data-name="Path 255" d="M125.335,352.543l2.733-3.633,3.555-1.414,4.106.3,2.427,1.424,2.107,2,.921,3.19v1.625l-1.2,3.748-3.216,2.518-4.251.689-3.292-.689-2.9-2.561-1.161-2.031-.232-2.67Z" transform="translate(-122.235 -339.99)" fill="#82ceff"/>
        <path id="Path_256" data-name="Path 256" d="M415.44,358.975s7.536.577,8.158,6.141-3.318,7.786-3.318,7.786,2.944.132,4.667-4.5-2.31-11.371-9.507-9.426" transform="translate(-406.467 -350.885)" fill="#5cafe2"/>
        <path id="Path_257" data-name="Path 257" d="M418.6,514.5c.05-.114,1.158-1.763,1.338-1.933.089-.086,5.3-4.259,5.321-4.23s-4.287,5.107-4.374,5.2c-.174.176-1.843,1.254-1.958,1.3s-.377-.22-.327-.333" transform="translate(-409.551 -497.352)" fill="#5cafe2"/>
        <path id="Path_258" data-name="Path 258" d="M194,426.5a6.877,6.877,0,0,1-2.133-.336,6.626,6.626,0,0,1-1.958-1.023,6.083,6.083,0,0,1-.978-8.865,6.924,6.924,0,0,1,7.368-2.057,6.625,6.625,0,0,1,1.958,1.023,6.083,6.083,0,0,1,.978,8.865A6.821,6.821,0,0,1,194,426.5m.165-12.445a6.649,6.649,0,0,0-5.1,2.332,5.91,5.91,0,0,0,.95,8.616A6.537,6.537,0,0,0,194,426.331,6.649,6.649,0,0,0,199.1,424a5.91,5.91,0,0,0-.95-8.615,6.537,6.537,0,0,0-3.987-1.324" transform="translate(-183.397 -404.946)" fill="#2e406b"/>
        <path id="Path_259" data-name="Path 259" d="M223.263,453.695a6.055,6.055,0,0,1-3.693-1.227,5.491,5.491,0,0,1-.883-8,6.157,6.157,0,0,1,4.725-2.16,6.055,6.055,0,0,1,3.693,1.227,5.491,5.491,0,0,1,.883,8,6.157,6.157,0,0,1-4.725,2.16m.149-11.217a5.984,5.984,0,0,0-4.593,2.1,5.318,5.318,0,0,0,.855,7.753,5.883,5.883,0,0,0,3.589,1.192,5.984,5.984,0,0,0,4.593-2.1A5.318,5.318,0,0,0,227,443.67a5.883,5.883,0,0,0-3.589-1.192" transform="translate(-212.655 -432.751)" fill="#2e406b"/>
        <path id="Path_260" data-name="Path 260" d="M120.049,333.9a8.826,8.826,0,0,0-11.949,1.325,7.781,7.781,0,0,0,1.251,11.341,8.827,8.827,0,0,0,11.949-1.325,7.781,7.781,0,0,0-1.251-11.341m-10.24,12.125a7.116,7.116,0,0,1-1.144-10.372,8.072,8.072,0,0,1,10.928-1.211,7.116,7.116,0,0,1,1.144,10.372,8.072,8.072,0,0,1-10.928,1.211" transform="translate(-103.911 -324.981)" fill="#fff"/>
        <path id="Path_261" data-name="Path 261" d="M110.657,344.476a8.9,8.9,0,0,1-2.761-.435,8.572,8.572,0,0,1-2.534-1.323,8.081,8.081,0,0,1-2.171-2.473,7.8,7.8,0,0,1-.674-6.1,8.092,8.092,0,0,1,1.58-2.89,8.588,8.588,0,0,1,3.082-2.312,9.106,9.106,0,0,1,3.691-.785,8.9,8.9,0,0,1,2.76.435,8.573,8.573,0,0,1,2.534,1.324,8.08,8.08,0,0,1,2.171,2.472,7.8,7.8,0,0,1,.674,6.1,8.092,8.092,0,0,1-1.58,2.89,8.589,8.589,0,0,1-3.082,2.312,9.105,9.105,0,0,1-3.691.785m.214-16.148a8.653,8.653,0,0,0-6.641,3.035,7.694,7.694,0,0,0,1.237,11.217,8.508,8.508,0,0,0,5.189,1.724,8.653,8.653,0,0,0,6.641-3.035,7.694,7.694,0,0,0-1.237-11.216,8.507,8.507,0,0,0-5.189-1.724m-.205,15.458a8.144,8.144,0,0,1-2.527-.4,7.845,7.845,0,0,1-2.319-1.212,7.4,7.4,0,0,1-1.988-2.263,7.142,7.142,0,0,1-.617-5.587,7.407,7.407,0,0,1,1.447-2.646,7.861,7.861,0,0,1,2.821-2.116,8.336,8.336,0,0,1,3.379-.718,8.145,8.145,0,0,1,2.527.4,7.849,7.849,0,0,1,2.319,1.212,7.4,7.4,0,0,1,1.988,2.263,7.142,7.142,0,0,1,.617,5.587,7.408,7.408,0,0,1-1.447,2.646,7.862,7.862,0,0,1-2.821,2.116,8.336,8.336,0,0,1-3.379.718m.2-14.768a7.906,7.906,0,0,0-6.068,2.773,7.03,7.03,0,0,0,1.13,10.247,7.773,7.773,0,0,0,4.741,1.575,7.906,7.906,0,0,0,6.068-2.773,7.03,7.03,0,0,0-1.13-10.247,7.773,7.773,0,0,0-4.741-1.575" transform="translate(-99.974 -321.067)" fill="#2e406b"/>
        <path id="Path_262" data-name="Path 262" d="M421.383,480.473a.087.087,0,0,0-.07-.035c-.041,0-.05,0-.9.668-.57.45-1.3,1.028-1.806,1.435-1.17.934-2.625,2.1-2.678,2.152-.189.179-1.3,1.839-1.358,1.961a.243.243,0,0,0,.044.23.485.485,0,0,0,.332.231.164.164,0,0,0,.064-.012c.123-.051,1.8-1.135,1.986-1.32.05-.05,1.24-1.453,2.231-2.627.42-.5,1.018-1.207,1.484-1.764.211-.252.374-.448.485-.584l.135-.166c.055-.069.088-.111.047-.166" transform="translate(-405.607 -470.061)" fill="#2e406b"/>
        <rect id="Rectangle_72" data-name="Rectangle 72" width="0.545" height="1.721" transform="translate(11.24 20.487) rotate(-8.495)" fill="#fff"/>
        <rect id="Rectangle_73" data-name="Rectangle 73" width="0.545" height="1.721" transform="translate(9.514 8.379) rotate(-8.495)" fill="#fff"/>
        <rect id="Rectangle_74" data-name="Rectangle 74" width="1.792" height="0.545" transform="translate(3.516 16.081) rotate(-8.495)" fill="#fff"/>
        <rect id="Rectangle_75" data-name="Rectangle 75" width="1.792" height="0.545" transform="translate(16.205 14.094) rotate(-8.495)" fill="#fff"/>
        <path id="Path_263" data-name="Path 263" d="M455.823,663.125a1.016,1.016,0,0,0-1.376.153.9.9,0,0,0,.144,1.306,1.016,1.016,0,0,0,1.376-.153.9.9,0,0,0-.144-1.306" transform="translate(-444.417 -648.605)" fill="#fff"/>
        <path id="Path_264" data-name="Path 264" d="M451.278,660.957a1.075,1.075,0,0,1-.656-.218.982.982,0,0,1-.158-1.43,1.093,1.093,0,0,1,.838-.384,1.075,1.075,0,0,1,.656.218.982.982,0,0,1,.158,1.43,1.092,1.092,0,0,1-.838.384m.025-1.859a.92.92,0,0,0-.706.322.809.809,0,0,0,.13,1.181.9.9,0,0,0,.551.183.92.92,0,0,0,.706-.322.809.809,0,0,0-.13-1.181.9.9,0,0,0-.551-.183" transform="translate(-440.5 -644.692)" fill="#2e406b"/>
        <path id="Path_265" data-name="Path 265" d="M480.12,686.877a.409.409,0,0,0-.162-.282.441.441,0,0,0-.269-.09.448.448,0,0,0-.343.157.408.408,0,0,0,.066.594.441.441,0,0,0,.269.09.447.447,0,0,0,.343-.157.409.409,0,0,0,.1-.311" transform="translate(-468.895 -671.677)" fill="#2e406b"/>
        <path id="Path_266" data-name="Path 266" d="M279.618,482.7a.086.086,0,0,1-.062-.026l-.946-.961a.086.086,0,1,1,.123-.121l.946.961a.086.086,0,0,1-.062.147" transform="translate(-272.569 -471.163)" fill="#2e406b"/>
        <path id="Path_267" data-name="Path 267" d="M669.941,879.266a.086.086,0,0,1-.062-.026l-.946-.961a.086.086,0,0,1,.123-.121l.946.961a.086.086,0,0,1-.062.147" transform="translate(-654.46 -859.165)" fill="#2e406b"/>
        <path id="Path_268" data-name="Path 268" d="M190.031,618.861a.084.084,0,0,1-.023,0l-1.337-.364a.086.086,0,0,1,.045-.167l1.337.365a.086.086,0,0,1-.023.17" transform="translate(-184.533 -604.967)" fill="#2e406b"/>
        <path id="Path_269" data-name="Path 269" d="M742.034,769.289a.084.084,0,0,1-.023,0l-1.337-.364a.086.086,0,0,1,.045-.167l1.337.364a.086.086,0,0,1-.023.17" transform="translate(-724.613 -752.147)" fill="#2e406b"/>
        <path id="Path_270" data-name="Path 270" d="M595.1,422.306a.086.086,0,0,1-.079-.121l.536-1.228a.086.086,0,0,1,.158.069l-.536,1.228a.086.086,0,0,1-.079.052" transform="translate(-582.159 -411.814)" fill="#2e406b"/>
        <path id="Path_271" data-name="Path 271" d="M373.839,929.05a.086.086,0,0,1-.079-.121l.536-1.228a.086.086,0,0,1,.158.069L373.918,929a.087.087,0,0,1-.079.052" transform="translate(-365.68 -907.612)" fill="#2e406b"/>
        <path id="Path_272" data-name="Path 272" d="M711.129,537.224a.086.086,0,0,1-.046-.16l1.174-.725a.086.086,0,0,1,.091.147l-1.174.725a.086.086,0,0,1-.045.013" transform="translate(-695.684 -524.741)" fill="#2e406b"/>
        <path id="Path_273" data-name="Path 273" d="M226.411,836.466a.086.086,0,0,1-.045-.16l1.174-.725a.086.086,0,1,1,.091.147l-1.174.725a.086.086,0,0,1-.045.013" transform="translate(-221.436 -817.52)" fill="#2e406b"/>
        <path id="Path_274" data-name="Path 274" d="M393.488,480a1.669,1.669,0,0,1-.268-2.433,1.894,1.894,0,0,1,2.564-.284,1.669,1.669,0,0,1,.268,2.433,1.894,1.894,0,0,1-2.564.284" transform="translate(-384.328 -466.603)" fill="#fff"/>
        <path id="Path_275" data-name="Path 275" d="M390.692,476.542a1.929,1.929,0,0,1-1.177-.391,1.756,1.756,0,0,1-.282-2.558,1.961,1.961,0,0,1,1.505-.688,1.93,1.93,0,0,1,1.177.391,1.756,1.756,0,0,1,.282,2.558,1.961,1.961,0,0,1-1.505.688m.046-3.465a1.789,1.789,0,0,0-1.373.627,1.583,1.583,0,0,0,.255,2.309,1.758,1.758,0,0,0,1.072.356,1.789,1.789,0,0,0,1.373-.627,1.583,1.583,0,0,0-.255-2.309,1.758,1.758,0,0,0-1.072-.356" transform="translate(-380.407 -462.689)" fill="#2e406b"/>
        <path id="Path_276" data-name="Path 276" d="M410.6,495.756a1.328,1.328,0,0,1-.214-1.936,1.507,1.507,0,0,1,2.04-.226,1.328,1.328,0,0,1,.214,1.936,1.507,1.507,0,0,1-2.04.226" transform="translate(-401.204 -482.642)" fill="#fff"/>
        <path id="Path_277" data-name="Path 277" d="M407.574,492.226a1.553,1.553,0,0,1-.947-.315,1.415,1.415,0,0,1-.227-2.061,1.578,1.578,0,0,1,1.211-.554,1.553,1.553,0,0,1,.947.315,1.415,1.415,0,0,1,.227,2.061,1.578,1.578,0,0,1-1.211.554m.037-2.757a1.406,1.406,0,0,0-1.079.493,1.242,1.242,0,0,0,.2,1.811,1.381,1.381,0,0,0,.843.28,1.406,1.406,0,0,0,1.079-.493,1.242,1.242,0,0,0-.2-1.811,1.382,1.382,0,0,0-.843-.28" transform="translate(-397.284 -478.728)" fill="#2e406b"/>
        <path id="Path_278" data-name="Path 278" d="M467.329,547.3a.211.211,0,0,0-.083-.146.223.223,0,0,0-.136-.046.226.226,0,0,0-.174.08.211.211,0,0,0,.034.307.224.224,0,0,0,.136.045.226.226,0,0,0,.174-.08.211.211,0,0,0,.05-.161" transform="translate(-456.8 -535.29)" fill="#2e406b"/>
        <path id="Path_279" data-name="Path 279" d="M420.061,514.056a.086.086,0,0,1-.051-.017l-1.444-1.064a.086.086,0,1,1,.1-.139l1.444,1.064a.086.086,0,0,1-.051.156" transform="translate(-409.491 -501.742)" fill="#2e406b"/>
        <path id="Path_280" data-name="Path 280" d="M325.869,173.917s-.231,1.324,1.775.525c0,0-1.1.328-.79,1.046a1.135,1.135,0,0,1-.985-1.571" transform="translate(-318.734 -170.16)" fill="#2e406b"/>
        <path id="Path_281" data-name="Path 281" d="M1028.589,328.815c.143.532.146.993.007,1.03s-.366-.364-.509-.9-.146-.993-.007-1.03.366.364.509.9" transform="translate(-1005.774 -320.834)" fill="#fff"/>
        <path id="Path_282" data-name="Path 282" d="M1555.991,1042.774c-.048.181-.531.211-1.08.065s-.954-.41-.906-.591.439-.039.987.106,1.046.239,1,.42" transform="translate(-1520.436 -1019.652)" fill="#fff"/>
        <path id="Path_283" data-name="Path 283" d="M1209.255,506.463c-.1.088-.467-.168-.813-.572s-.544-.8-.441-.891.467.168.813.572.544.8.441.891" transform="translate(-1181.881 -494.074)" fill="#fff"/>
        <path id="Path_284" data-name="Path 284" d="M1204.18,775.806c.556,1.165.806,2.2.326,2.431s-1.321-.53-1.876-1.7-.617-2.3-.137-2.525,1.131.624,1.687,1.789" transform="translate(-1176.203 -757.261)" fill="#fff5e9"/>
        <path id="Path_285" data-name="Path 285" d="M1684.1,1101.185c.063.34.053.627-.021.641s-.185-.251-.248-.591-.053-.627.021-.641.185.251.248.591" transform="translate(-1647.423 -1076.821)" fill="#fff"/>
      </g>
    </g>
  </g>
</svg>
