<svg xmlns="http://www.w3.org/2000/svg" xmlns:xlink="http://www.w3.org/1999/xlink" width="48" height="48" viewBox="0 0 48 48">
  <defs>
    <clipPath id="clip-water_drinking">
      <rect width="48" height="48"/>
    </clipPath>
  </defs>
  <g id="water_drinking" clip-path="url(#clip-water_drinking)">
    <g id="Group_2064" data-name="Group 2064" transform="translate(-18.159 -9.273)">
      <path id="Path_2466" data-name="Path 2466" d="M37.8,76.417h-6.85a1.373,1.373,0,0,1-1.43-1.166l-1.36-15.567a.67.67,0,0,1,.715-.68h11a.67.67,0,0,1,.715.68L39.23,75.251a1.373,1.373,0,0,1-1.43,1.166Z" transform="translate(0 -28.374)" fill="#00c9ce"/>
      <g id="Group_2055" data-name="Group 2055" transform="translate(29.536 38.157)" opacity="0.2">
        <path id="Path_2467" data-name="Path 2467" d="M42.454,80l-.76,8.719a1.375,1.375,0,0,1-1.43,1.169H33.416A1.389,1.389,0,0,1,32,88.812h6.829a1.375,1.375,0,0,0,1.43-1.169l.534-6.122A1.666,1.666,0,0,1,42.454,80Z" transform="translate(-32 -80)" fill="#231f20"/>
      </g>
      <path id="Path_2468" data-name="Path 2468" d="M34.762,70.58a13.516,13.516,0,0,0-1.5.077l.964,12.262h6.847l.871-11.086c-3.3-.122-3.5-1.253-7.181-1.253Z" transform="translate(-3.272 -35.801)" fill="#a9f0fc"/>
      <g id="Group_2056" data-name="Group 2056" transform="translate(30.952 38.515)" opacity="0.2">
        <path id="Path_2469" data-name="Path 2469" d="M43.464,81,42.8,89.6H35.95v-.022h5.413l.551-7.094A1.581,1.581,0,0,1,43.464,81h0Z" transform="translate(-35.95 -81)" fill="#231f20"/>
      </g>
      <path id="Path_2470" data-name="Path 2470" d="M43.257,46.811a20.452,20.452,0,0,1,.538-4.66L43.078,40a9.934,9.934,0,0,0-3.868,6.811Z" transform="translate(-7.089 -16.183)" fill="#a9f0fc"/>
      <g id="Group_2057" data-name="Group 2057" transform="translate(35.136 23.817)" opacity="0.2">
        <path id="Path_2471" data-name="Path 2471" d="M48.653,46.811H47.624a31.7,31.7,0,0,1,.7-6.7A1.825,1.825,0,0,1,48.473,40l.717,2.151A20.452,20.452,0,0,0,48.653,46.811Z" transform="translate(-47.62 -40)" fill="#231f20"/>
      </g>
      <path id="Path_2472" data-name="Path 2472" d="M33.793,54.434a.359.359,0,0,1-.321-.2,1.071,1.071,0,0,0-1.113-.519.358.358,0,0,1,0-.717,1.774,1.774,0,0,1,1.755.915.358.358,0,0,1-.32.519Z" transform="translate(-2.464 -24.523)" fill="#024984"/>
      <path id="Path_2473" data-name="Path 2473" d="M53.358,53.434a.358.358,0,0,1-.32-.519,1.47,1.47,0,0,1,1.4-.915.358.358,0,0,1,0,.717.761.761,0,0,0-.755.519.358.358,0,0,1-.321.2Z" transform="translate(-15.936 -23.881)" fill="#024984"/>
      <path id="Path_2474" data-name="Path 2474" d="M36.059,49.792a.358.358,0,0,1-.358-.358,1.137,1.137,0,0,0-.377-.719.35.35,0,0,1-.35-.357A.366.366,0,0,1,35.342,48c.621,0,1.075.943,1.075,1.434A.358.358,0,0,1,36.059,49.792Z" transform="translate(-4.372 -21.315)" fill="#024984"/>
      <g id="Group_2062" data-name="Group 2062" transform="translate(35.703 14.773)">
        <path id="Path_2475" data-name="Path 2475" d="M52,39.688l-1.025.33a.36.36,0,0,1-.448-.233l-.287-.9-1.022-3.194a.359.359,0,0,1,.229-.452l1.025-.326a.358.358,0,0,1,.452.233l1.018,3.187.29.911A.354.354,0,0,1,52,39.688Z" transform="translate(-49.201 -27.679)" fill="#f0f5fc"/>
        <g id="Group_2058" data-name="Group 2058" transform="translate(1.039 10.65)" opacity="0.2">
          <path id="Path_2476" data-name="Path 2476" d="M53.86,45.839l-1.025.33a.36.36,0,0,1-.448-.233l-.287-.9,1.7-.552.29.911a.354.354,0,0,1-.233.448Z" transform="translate(-52.1 -44.48)" fill="#231f20"/>
        </g>
        <path id="Path_2477" data-name="Path 2477" d="M60.392,18.772a1.159,1.159,0,0,1-1.09.371,2.719,2.719,0,0,0-1.348.075,3.312,3.312,0,0,0-2.1,3.3l-1.237.4.873,2.732,1.237-.4a3.313,3.313,0,0,0,3.624,1.477,2.72,2.72,0,0,0,1.143-.72,1.159,1.159,0,0,1,1.1-.33l.654.154a2.316,2.316,0,0,0,1.236-.048l5.877-1.877,2.732-.873a1.434,1.434,0,0,0,.93-1.8l-1.745-5.464a1.434,1.434,0,0,0-1.8-.93l-2.732.873-5.878,1.877a2.315,2.315,0,0,0-1.035.677l-.443.5Z" transform="translate(-52.677 -14.773)" fill="#00c4ef"/>
        <g id="Group_2059" data-name="Group 2059" transform="translate(4.083 5.534)" opacity="0.2">
          <path id="Path_2478" data-name="Path 2478" d="M76.927,32.942l-2.732.871-5.876,1.879a2.338,2.338,0,0,1-1.237.047l-.652-.154a1.161,1.161,0,0,0-1.1.33,2.731,2.731,0,0,1-1.144.721A3.3,3.3,0,0,1,60.59,35.2l.075-.333a3.086,3.086,0,0,0,2.721.473,2.9,2.9,0,0,0,1.183-.731,1.228,1.228,0,0,1,1.136-.344l.67.151a2.437,2.437,0,0,0,1.273-.061l6.059-1.936,2.818-.9a1.471,1.471,0,0,0,1.036-1.309l.3.928a1.437,1.437,0,0,1-.932,1.8Z" transform="translate(-60.59 -30.21)" fill="#231f20"/>
        </g>
        <path id="Path_2479" data-name="Path 2479" d="M82.3,25.6l-5.876,1.879-.642.1-.43-1.348-1.724-5.406-.405-1.265.584-.283L79.68,17.4l.376,1.183,1.792,5.607Z" transform="translate(-64.609 -16.458)" fill="#00c9ce"/>
        <g id="Group_2060" data-name="Group 2060" transform="translate(10.74 7.732)" opacity="0.2">
          <path id="Path_2480" data-name="Path 2480" d="M86.108,37.745l-5.876,1.879a2.309,2.309,0,0,1-.642.1l-.43-1.348a2.247,2.247,0,0,0,.4-.093l6.059-1.936.039-.011.448,1.405Z" transform="translate(-79.16 -36.34)" fill="#231f20"/>
        </g>
        <path id="Path_2481" data-name="Path 2481" d="M83.868,27.415l-2.391.764-.448-1.405-2.169-6.79,2.391-.764,2.169,6.79Z" transform="translate(-68.228 -17.626)" fill="#f0f5fc"/>
        <g id="Group_2061" data-name="Group 2061" transform="translate(12.801 8.385)" opacity="0.2">
          <rect id="Rectangle_467" data-name="Rectangle 467" width="2.51" height="1.475" transform="matrix(0.953, -0.304, 0.304, 0.953, 0, 0.764)" fill="#231f20"/>
        </g>
      </g>
      <g id="Group_2063" data-name="Group 2063" transform="translate(32.67 37.004)">
        <path id="Path_2482" data-name="Path 2482" d="M41.263,97.813a.538.538,0,0,0,0-1.075.538.538,0,0,0,0,1.075Z" transform="translate(-40.743 -89.585)" fill="#00c9ce"/>
        <path id="Path_2483" data-name="Path 2483" d="M47.8,93.269a.538.538,0,0,0,0-1.075.538.538,0,0,0,0,1.075Z" transform="translate(-44.939 -86.67)" fill="#00c9ce"/>
        <path id="Path_2484" data-name="Path 2484" d="M41.6,85.842a.538.538,0,0,0,0-1.075.538.538,0,0,0,0,1.075Z" transform="translate(-40.957 -81.906)" fill="#00c9ce"/>
        <path id="Path_2485" data-name="Path 2485" d="M47.581,77.861a.538.538,0,0,0,0-1.075.538.538,0,0,0,0,1.075Z" transform="translate(-44.797 -76.786)" fill="#00c9ce"/>
      </g>
    </g>
  </g>
</svg>
