<svg xmlns="http://www.w3.org/2000/svg" xmlns:xlink="http://www.w3.org/1999/xlink" width="48" height="48" viewBox="0 0 48 48">
  <defs>
    <clipPath id="clip-weight_machine">
      <rect width="48" height="48"/>
    </clipPath>
  </defs>
  <g id="weight_machine" clip-path="url(#clip-weight_machine)">
    <g id="Flat_Weigh_Scale" data-name="Flat_Weigh Scale" transform="translate(-2.403 -5.769)">
      <g id="Group_2350" data-name="Group 2350" transform="translate(11.403 13.769)">
        <path id="Path_3112" data-name="Path 3112" d="M51.7,25.672,49.628,48.14a4.282,4.282,0,0,1-4.262,3.887H27.5a4.282,4.282,0,0,1-4.262-3.887L21.168,25.672A4.282,4.282,0,0,1,25.429,21h22A4.282,4.282,0,0,1,51.7,25.672Z" transform="translate(-21.15 -21)" fill="#00c9ce"/>
        <g id="Group_2338" data-name="Group 2338" transform="translate(1.163 17.119)" opacity="0.2">
          <path id="Path_3113" data-name="Path 3113" d="M37.1,82.909H29.6a4.282,4.282,0,0,1-4.262-3.887L24.41,69h0a2.564,2.564,0,0,1,2.554,2.33l.51,5.552a4.282,4.282,0,0,0,4.262,3.887h3.228a2.14,2.14,0,0,1,2.14,2.14Z" transform="translate(-24.41 -69)" fill="#231f20"/>
        </g>
        <circle id="Ellipse_148" data-name="Ellipse 148" cx="1.783" cy="1.783" r="1.783" transform="translate(6.01 22.825)" fill="#fce724"/>
        <path id="Path_3114" data-name="Path 3114" d="M77.869,27.712a2.088,2.088,0,0,0-1.452-.692L71.785,37.252a35.333,35.333,0,0,0-5.048-.577A.714.714,0,0,0,66,37.39V53.761h8.221a2.132,2.132,0,0,0,2.133-1.944l2.065-22.468A2.109,2.109,0,0,0,77.869,27.712Z" transform="translate(-50.004 -24.873)" fill="#038c93"/>
        <path id="Path_3115" data-name="Path 3115" d="M33.8,37.252,29.163,27.02a2.135,2.135,0,0,0-2,2.329l2.065,22.468a2.132,2.132,0,0,0,2.133,1.944h8.221V37.39a.714.714,0,0,0-.737-.715A35.276,35.276,0,0,0,33.8,37.252Z" transform="translate(-25.012 -24.873)" fill="#038c93"/>
        <path id="Path_3116" data-name="Path 3116" d="M57.979,28.5l-2.853,6.3a12.679,12.679,0,0,0-3.156-.856,11.423,11.423,0,0,0-2.96,0,12.679,12.679,0,0,0-3.156.856L43,28.5l.125-.082c.2-.132.4-.26.6-.378.332-.2.663-.385,1-.553l.642-.314c.357-.164.717-.31,1.073-.435.225-.086.449-.157.674-.225a11.118,11.118,0,0,1,1.141-.285c.232-.046.467-.089.7-.118a10.135,10.135,0,0,1,1.18-.1c.239-.007.474-.007.713,0a10.135,10.135,0,0,1,1.18.1c.232.029.467.071.7.118a11.118,11.118,0,0,1,1.141.285l.674.225c.357.125.717.271,1.073.435.214.1.428.2.642.314.332.168.663.353,1,.553.2.118.4.246.6.378Z" transform="translate(-35.207 -24.22)" fill="#ecffff"/>
        <g id="Group_2340" data-name="Group 2340" transform="translate(8.439 5.706)" opacity="0.2">
          <g id="Group_2339" data-name="Group 2339" transform="translate(0)" opacity="0.5">
            <path id="Path_3117" data-name="Path 3117" d="M51.3,40.74A1.147,1.147,0,0,0,50,39.6l-.013,0a13.493,13.493,0,0,0-1.607.314.762.762,0,0,1-.879-.429l-.481-1.064A2.429,2.429,0,0,0,44.811,37h0l2.207,4.875a12.679,12.679,0,0,1,3.156-.856c.375-.049.749-.073,1.123-.085v-.194Z" transform="translate(-44.811 -36.999)" fill="#231f20"/>
          </g>
        </g>
        <g id="Group_2343" data-name="Group 2343" transform="translate(7.918 1.785)">
          <path id="Path_3118" data-name="Path 3118" d="M63.713,26.01v1.776a.357.357,0,0,1-.713,0V26.01C63.239,26,63.474,26,63.713,26.01Z" transform="translate(-55.992 -26.005)" fill="#32499e"/>
          <g id="Group_2341" data-name="Group 2341" transform="translate(0 0.105)">
            <path id="Path_3119" data-name="Path 3119" d="M58.647,28.037a.356.356,0,0,1-.31.4.174.174,0,0,1-.043,0,.355.355,0,0,1-.353-.314l-.21-1.7c.232-.046.467-.089.7-.118a.013.013,0,0,1,0,.011Z" transform="translate(-52.601 -26.3)" fill="#32499e"/>
            <path id="Path_3120" data-name="Path 3120" d="M53.457,29.459a.355.355,0,0,1-.432-.26l-.385-1.544c.225-.086.449-.157.674-.225a.027.027,0,0,1,.007.018l.4,1.58A.356.356,0,0,1,53.457,29.459Z" transform="translate(-49.327 -27.027)" fill="#32499e"/>
            <path id="Path_3121" data-name="Path 3121" d="M48.472,29.28c0,.007.007.018.011.025l.528,1.377a.354.354,0,0,1-.2.46.329.329,0,0,1-.128.025.353.353,0,0,1-.332-.228l-.517-1.345Z" transform="translate(-46.232 -28.217)" fill="#32499e"/>
            <path id="Path_3122" data-name="Path 3122" d="M44.445,33.393a.353.353,0,0,1-.481-.146l-.613-1.159c.2-.132.4-.26.6-.378a.078.078,0,0,1,.011.018l.628,1.184A.354.354,0,0,1,44.445,33.393Z" transform="translate(-43.35 -29.781)" fill="#32499e"/>
          </g>
          <g id="Group_2342" data-name="Group 2342" transform="translate(8.681 0.105)">
            <path id="Path_3123" data-name="Path 3123" d="M68.611,26.418l-.21,1.7a.355.355,0,0,1-.353.314.174.174,0,0,1-.043,0,.356.356,0,0,1-.31-.4l.214-1.726a.013.013,0,0,1,0-.011c.232.029.467.071.7.118Z" transform="translate(-67.692 -26.3)" fill="#32499e"/>
            <path id="Path_3124" data-name="Path 3124" d="M73.4,27.655,73.013,29.2a.356.356,0,0,1-.692-.171l.4-1.58a.027.027,0,0,1,.007-.018l.674.225Z" transform="translate(-70.664 -27.027)" fill="#32499e"/>
            <path id="Path_3125" data-name="Path 3125" d="M78,29.594l-.517,1.345a.353.353,0,0,1-.332.228.329.329,0,0,1-.128-.025.354.354,0,0,1-.2-.46l.528-1.377c0-.007.007-.018.011-.025C77.569,29.376,77.783,29.483,78,29.594Z" transform="translate(-73.547 -28.217)" fill="#32499e"/>
            <path id="Path_3126" data-name="Path 3126" d="M82.335,32.088l-.613,1.159a.356.356,0,1,1-.628-.335l.628-1.184a.078.078,0,0,1,.011-.018C81.932,31.828,82.131,31.956,82.335,32.088Z" transform="translate(-76.287 -29.781)" fill="#32499e"/>
          </g>
        </g>
        <path id="Path_3127" data-name="Path 3127" d="M62.81,40.716a11.32,11.32,0,0,0-1.837-.089c-.093,0-.185.007-.282.014s-.189.007-.282.018-.185.014-.278.025-.189.021-.282.032l.417-1.337h0l.168-.542.67-2.145a.232.232,0,0,1,.442,0l.67,2.145.588,1.88Z" transform="translate(-46.048 -30.991)" fill="#ef3d23"/>
        <g id="Group_2345" data-name="Group 2345" transform="translate(13.802 8.388)" opacity="0.5">
          <g id="Group_2344" data-name="Group 2344" opacity="0.5">
            <path id="Path_3128" data-name="Path 3128" d="M60.973,45.579v.193l-.282.011c-.093.007-.185.011-.282.018s-.185.014-.278.025-.189.021-.282.032l.417-1.337h0A1.145,1.145,0,0,1,60.973,45.579Z" transform="translate(-59.85 -44.52)" fill="#231f20"/>
          </g>
        </g>
        <circle id="Ellipse_149" data-name="Ellipse 149" cx="1.783" cy="1.783" r="1.783" transform="translate(21.702 13.909)" fill="#fce724"/>
        <g id="Group_2346" data-name="Group 2346" transform="translate(21.702 14.127)" opacity="0.2">
          <path id="Path_3129" data-name="Path 3129" d="M85.349,63.028a1.783,1.783,0,1,1-2.418-2.418,1.76,1.76,0,0,0-.218.852A1.784,1.784,0,0,0,84.5,63.246,1.76,1.76,0,0,0,85.349,63.028Z" transform="translate(-82 -60.61)" fill="#231f20"/>
        </g>
        <circle id="Ellipse_150" data-name="Ellipse 150" cx="1.783" cy="1.783" r="1.783" transform="translate(20.989 22.825)" fill="#fce724"/>
        <g id="Group_2347" data-name="Group 2347" transform="translate(20.989 23.043)" opacity="0.2">
          <path id="Path_3130" data-name="Path 3130" d="M83.349,88.028a1.783,1.783,0,1,1-2.418-2.418,1.76,1.76,0,0,0-.218.852A1.784,1.784,0,0,0,82.5,88.246,1.76,1.76,0,0,0,83.349,88.028Z" transform="translate(-80 -85.61)" fill="#231f20"/>
        </g>
        <path id="Path_3131" data-name="Path 3131" d="M39.566,61.783A1.783,1.783,0,1,1,37.783,60a.2.2,0,0,1,.046,0,1.773,1.773,0,0,1,1.733,1.733A.2.2,0,0,1,39.566,61.783Z" transform="translate(-30.704 -46.091)" fill="#fce724"/>
        <g id="Group_2348" data-name="Group 2348" transform="translate(5.296 14.127)" opacity="0.2">
          <path id="Path_3132" data-name="Path 3132" d="M39.349,63.028a1.783,1.783,0,1,1-2.418-2.418,1.76,1.76,0,0,0-.218.852A1.784,1.784,0,0,0,38.5,63.246,1.76,1.76,0,0,0,39.349,63.028Z" transform="translate(-36 -60.61)" fill="#231f20"/>
        </g>
        <circle id="Ellipse_151" data-name="Ellipse 151" cx="1.783" cy="1.783" r="1.783" transform="translate(6.01 22.825)" fill="#fce724"/>
        <g id="Group_2349" data-name="Group 2349" transform="translate(6.01 23.043)" opacity="0.2">
          <path id="Path_3133" data-name="Path 3133" d="M41.349,88.028a1.783,1.783,0,1,1-2.418-2.418,1.76,1.76,0,0,0-.218.852A1.784,1.784,0,0,0,40.5,88.246,1.76,1.76,0,0,0,41.349,88.028Z" transform="translate(-38 -85.61)" fill="#231f20"/>
        </g>
      </g>
    </g>
  </g>
</svg>
